<?xml version="1.0" encoding="UTF-8" standalone="no"?>
<!-- Created with Inkscape (http://www.inkscape.org/) -->

<svg
   width="94.283485mm"
   height="78.207085mm"
   viewBox="0 0 94.283483 78.207085"
   version="1.1"
   id="svg1"
   inkscape:version="1.3.2 (1:1.3.2+202311252150+091e20ef0f)"
   sodipodi:docname="TranslatorWireframe.svg"
   xmlns:inkscape="http://www.inkscape.org/namespaces/inkscape"
   xmlns:sodipodi="http://sodipodi.sourceforge.net/DTD/sodipodi-0.dtd"
   xmlns="http://www.w3.org/2000/svg"
   xmlns:svg="http://www.w3.org/2000/svg">
  <sodipodi:namedview
     id="namedview1"
     pagecolor="#ffffff"
     bordercolor="#000000"
     borderopacity="0.25"
     inkscape:showpageshadow="2"
     inkscape:pageopacity="0.0"
     inkscape:pagecheckerboard="0"
     inkscape:deskcolor="#d1d1d1"
     inkscape:document-units="mm"
     inkscape:zoom="1.7964238"
     inkscape:cx="173.95672"
     inkscape:cy="124.69218"
     inkscape:window-width="1656"
     inkscape:window-height="1016"
     inkscape:window-x="72"
     inkscape:window-y="27"
     inkscape:window-maximized="1"
     inkscape:current-layer="layer1" />
  <defs
     id="defs1" />
  <g
     inkscape:label="Layer 1"
     inkscape:groupmode="layer"
     id="layer1"
     transform="translate(-73.920494,-42.982601)">
    <rect
       style="fill:#a9a9a9;stroke-width:0.264583"
       id="rect1"
       width="56.929821"
       height="22.874863"
       x="92.655403"
       y="42.982601" />
    <rect
       style="fill:#a9a9a9;stroke-width:0.264583"
       id="rect1-5"
       width="56.929821"
       height="22.874863"
       x="92.695862"
       y="68.489914" />
    <rect
       style="fill:#a9a9a9;stroke-width:0.100759"
       id="rect1-5-2"
       width="15.055537"
       height="12.544165"
       x="112.8333"
       y="108.64552" />
    <rect
       style="fill:#a9a9a9;stroke-width:0.127637"
       id="rect1-5-2-5"
       width="30.273174"
       height="10.010754"
       x="73.920494"
       y="110.22855" />
    <rect
       style="fill:#a9a9a9;stroke-width:0.264583"
       id="rect2"
       width="33.699707"
       height="11.246033"
       x="84.872932"
       y="94.00528" />
    <rect
       style="fill:#a9a9a9;stroke-width:0.264583"
       id="rect2-7"
       width="33.699707"
       height="11.246033"
       x="121.90081"
       y="93.883614" />
    <path
       stroke="none"
       d="m 92.118772,64.422469 h 6.35 v 6.349997 h -6.35 z"
       fill="none"
       id="path1"
       style="stroke-width:0.264583" />
    <path
       stroke="none"
       d="m 86.137527,96.916361 h 6.35 v 6.349999 h -6.35 z"
       fill="none"
       id="path1-0"
       style="stroke-width:0.264583" />
    <path
       d="m 87.725027,97.974701 h 2.645833 l 1.058333,1.05833 v 2.645829 a 0.52916667,0.52916667 0 0 1 -0.529166,0.52917 h -3.175 a 0.52916667,0.52916667 0 0 1 -0.529167,-0.52917 v -3.174999 a 0.52916667,0.52916667 0 0 1 0.529167,-0.52916"
       id="path2"
       style="stroke-width:0.264583" />
    <path
       d="m 89.312527,100.62053 m -0.529167,0 a 0.5291667,0.5291667 0 1 0 1.058333,0 0.5291667,0.5291667 0 1 0 -1.058333,0"
       id="path3"
       style="fill:#808080;stroke-width:0.264583" />
    <path
       d="m 89.841693,97.974701 v 1.05833 h -1.5875 v -1.05833"
       id="path4"
       style="fill:#808080;stroke-width:0.264583" />
    <path
       d="m 124.53317,97.579011 h 2.64583 l 1.05833,1.05834 v 2.645829 a 0.52916667,0.52916667 0 0 1 -0.52916,0.52917 h -3.175 a 0.52916667,0.52916667 0 0 1 -0.52917,-0.52917 v -3.174999 a 0.52916667,0.52916667 0 0 1 0.52917,-0.52917"
       id="path2-0"
       style="stroke-width:0.264583" />
    <path
       d="m 126.12067,100.22485 m -0.52917,0 a 0.5291667,0.5291667 0 1 0 1.05833,0 0.5291667,0.5291667 0 1 0 -1.05833,0"
       id="path3-6"
       style="fill:#808080;stroke-width:0.264583" />
    <path
       d="m 126.64983,97.579011 v 1.05834 h -1.5875 v -1.05834"
       id="path4-2"
       style="fill:#808080;stroke-width:0.264583" />
    <text
       xml:space="preserve"
       style="font-size:3.175px;fill:#808080;stroke-width:0.264583"
       x="92.379433"
       y="101.57468"
       id="text3"><tspan
         sodipodi:role="line"
         id="tspan3"
         style="font-weight:bold;fill:#1a1a1a;stroke-width:0.264583"
         x="92.379433"
         y="101.57468">Whole Phrase</tspan></text>
    <text
       xml:space="preserve"
       style="font-size:3.175px;fill:#808080;stroke-width:0.264583"
       x="129.34711"
       y="100.94925"
       id="text3-7"><tspan
         sodipodi:role="line"
         id="tspan3-9"
         style="font-weight:bold;fill:#1a1a1a;stroke-width:0.264583"
         x="129.34711"
         y="100.94925">Single Word</tspan></text>
    <text
       xml:space="preserve"
       style="font-size:3.175px;fill:#1a1a1a;stroke-width:0.264583"
       x="82.690727"
       y="116.32163"
       id="text4"><tspan
         sodipodi:role="line"
         id="tspan4"
         style="stroke-width:0.264583"
         x="82.690727"
         y="116.32163">English</tspan></text>
    <text
       xml:space="preserve"
       style="font-size:3.175px;fill:#1a1a1a;stroke-width:0.264583"
       x="115.01218"
       y="55.37859"
       id="text6"><tspan
         sodipodi:role="line"
         id="tspan6"
         style="stroke-width:0.264583"
         x="115.01218"
         y="55.37859">Hello</tspan></text>
    <text
       xml:space="preserve"
       style="font-size:3.175px;fill:#1a1a1a;stroke-width:0.264583"
       x="117.33339"
       y="81.717117"
       id="text6-3"><tspan
         sodipodi:role="line"
         id="tspan6-7"
         style="stroke-width:0.264583"
         x="117.33339"
         y="81.717117">Hola</tspan></text>
    <path
       stroke="none"
       d="m 116.88625,111.7031 h 6.35 v 6.35 h -6.35 z"
       fill="none"
       id="path1-5"
       style="stroke-width:0.264583" />
    <path
       d="m 121.11959,112.49685 1.05833,1.05834 -1.05833,1.05833"
       id="path2-9"
       style="stroke-width:0.264583" />
    <path
       d="m 119.00292,113.55519 h 2.64583"
       id="path3-2"
       style="fill:none;fill-opacity:1;stroke:#000000;stroke-width:0.165;stroke-dasharray:none;stroke-opacity:1" />
    <path
       d="m 119.00292,115.14269 -1.05833,1.05833 1.05833,1.05833"
       id="path4-28"
       style="stroke-width:0.264583" />
    <path
       d="m 118.47376,116.20102 h 2.38125"
       id="path5"
       style="fill:none;fill-opacity:1;stroke:#000000;stroke-width:0.165;stroke-dasharray:none;stroke-opacity:1" />
    <text
       xml:space="preserve"
       style="font-size:2.35277px;fill:none;stroke:#000000;stroke-width:0.0481669"
       x="89.763023"
       y="119.19651"
       id="text1"><tspan
         sodipodi:role="line"
         id="tspan1"
         style="fill:#1a1a1a;stroke-width:0.0481669"
         x="89.763023"
         y="119.19651">(dropdown)</tspan></text>
    <rect
       style="fill:#a9a9a9;stroke-width:0.127637"
       id="rect1-5-2-5-2"
       width="30.273174"
       height="10.010754"
       x="137.9308"
       y="110.3205" />
    <text
       xml:space="preserve"
       style="font-size:3.175px;fill:#1a1a1a;stroke-width:0.264583"
       x="146.70103"
       y="116.41358"
       id="text4-9"><tspan
         sodipodi:role="line"
         id="tspan4-1"
         style="stroke-width:0.264583"
         x="146.70103"
         y="116.41358">Spanish</tspan></text>
    <text
       xml:space="preserve"
       style="font-size:2.35277px;fill:none;stroke:#000000;stroke-width:0.0481669"
       x="153.77333"
       y="119.28846"
       id="text1-2"><tspan
         sodipodi:role="line"
         id="tspan1-7"
         style="fill:#1a1a1a;stroke-width:0.0481669"
         x="153.77333"
         y="119.28846">(dropdown)</tspan></text>
  </g>
</svg>
