<?xml version="1.0" encoding="UTF-8" standalone="no"?>
<!-- Created with Inkscape (http://www.inkscape.org/) -->

<svg
   width="139.69038mm"
   height="45.775795mm"
   viewBox="0 0 139.69038 45.775795"
   version="1.1"
   id="svg1"
   inkscape:version="1.3.2 (1:1.3.2+202311252150+091e20ef0f)"
   sodipodi:docname="TranslatorWireframe.svg"
   xmlns:inkscape="http://www.inkscape.org/namespaces/inkscape"
   xmlns:sodipodi="http://sodipodi.sourceforge.net/DTD/sodipodi-0.dtd"
   xmlns="http://www.w3.org/2000/svg"
   xmlns:svg="http://www.w3.org/2000/svg">
  <sodipodi:namedview
     id="namedview1"
     pagecolor="#ffffff"
     bordercolor="#000000"
     borderopacity="0.25"
     inkscape:showpageshadow="2"
     inkscape:pageopacity="0.0"
     inkscape:pagecheckerboard="0"
     inkscape:deskcolor="#d1d1d1"
     inkscape:document-units="mm"
     inkscape:zoom="1.7964238"
     inkscape:cx="256.8993"
     inkscape:cy="72.92266"
     inkscape:window-width="1656"
     inkscape:window-height="1016"
     inkscape:window-x="72"
     inkscape:window-y="27"
     inkscape:window-maximized="1"
     inkscape:current-layer="layer1" />
  <defs
     id="defs1" />
  <g
     inkscape:label="Layer 1"
     inkscape:groupmode="layer"
     id="layer1"
     transform="translate(-48.169796,-42.460152)">
    <rect
       style="fill:#a9a9a9;stroke-width:0.264583"
       id="rect1"
       width="56.929821"
       height="22.874863"
       x="48.169796"
       y="42.881729" />
    <rect
       style="fill:#a9a9a9;stroke-width:0.264583"
       id="rect1-5"
       width="56.929821"
       height="22.874863"
       x="130.93036"
       y="42.460152" />
    <rect
       style="fill:#a9a9a9;stroke-width:0.100759"
       id="rect1-5-2"
       width="15.055537"
       height="12.544165"
       x="110.42222"
       y="48.585003" />
    <rect
       style="fill:#a9a9a9;stroke-width:0.264583"
       id="rect2"
       width="33.699707"
       height="11.246033"
       x="82.766075"
       y="72.009323" />
    <rect
       style="fill:#a9a9a9;stroke-width:0.264583"
       id="rect2-7"
       width="33.699707"
       height="11.246033"
       x="119.79395"
       y="71.887657" />
    <path
       stroke="none"
       d="m 92.01845,81.885948 h 6.35 v 6.349997 h -6.35 z"
       fill="none"
       id="path1"
       style="stroke-width:0.264583" />
    <path
       stroke="none"
       d="m 84.030667,74.920408 h 6.35 v 6.35 h -6.35 z"
       fill="none"
       id="path1-0"
       style="stroke-width:0.264583" />
    <path
       d="M 85.618167,75.978741 H 88.264 l 1.058333,1.058333 v 2.645834 a 0.52916667,0.52916667 0 0 1 -0.529166,0.529166 h -3.175 A 0.52916667,0.52916667 0 0 1 85.089,79.682908 v -3.175 a 0.52916667,0.52916667 0 0 1 0.529167,-0.529167"
       id="path2"
       style="stroke-width:0.264583" />
    <path
       d="m 87.205667,78.624574 m -0.529167,0 a 0.5291667,0.5291667 0 1 0 1.058333,0 0.5291667,0.5291667 0 1 0 -1.058333,0"
       id="path3"
       style="fill:#808080;stroke-width:0.264583" />
    <path
       d="m 87.734833,75.978741 v 1.058333 h -1.5875 v -1.058333"
       id="path4"
       style="fill:#808080;stroke-width:0.264583" />
    <path
       d="m 122.42631,75.583057 h 2.64583 l 1.05833,1.058333 v 2.645834 a 0.52916667,0.52916667 0 0 1 -0.52916,0.529166 h -3.175 a 0.52916667,0.52916667 0 0 1 -0.52917,-0.529166 v -3.175 a 0.52916667,0.52916667 0 0 1 0.52917,-0.529167"
       id="path2-0"
       style="stroke-width:0.264583" />
    <path
       d="m 124.01381,78.22889 m -0.52917,0 a 0.5291667,0.5291667 0 1 0 1.05833,0 0.5291667,0.5291667 0 1 0 -1.05833,0"
       id="path3-6"
       style="fill:#808080;stroke-width:0.264583" />
    <path
       d="m 124.54297,75.583057 v 1.058333 h -1.5875 v -1.058333"
       id="path4-2"
       style="fill:#808080;stroke-width:0.264583" />
    <text
       xml:space="preserve"
       style="font-size:3.175px;fill:#808080;stroke-width:0.264583"
       x="90.272575"
       y="79.578728"
       id="text3"><tspan
         sodipodi:role="line"
         id="tspan3"
         style="font-weight:bold;fill:#1a1a1a;stroke-width:0.264583"
         x="90.272575"
         y="79.578728">Whole Phrase</tspan></text>
    <text
       xml:space="preserve"
       style="font-size:3.175px;fill:#808080;stroke-width:0.264583"
       x="127.24025"
       y="78.953293"
       id="text3-7"><tspan
         sodipodi:role="line"
         id="tspan3-9"
         style="font-weight:bold;fill:#1a1a1a;stroke-width:0.264583"
         x="127.24025"
         y="78.953293">Single Word</tspan></text>
    <text
       xml:space="preserve"
       style="font-size:3.175px;fill:#1a1a1a;stroke-width:0.264583"
       x="48.929485"
       y="46.448063"
       id="text4"><tspan
         sodipodi:role="line"
         id="tspan4"
         style="stroke-width:0.264583"
         x="48.929485"
         y="46.448063">English:</tspan></text>
    <text
       xml:space="preserve"
       style="font-size:3.175px;fill:#1a1a1a;stroke-width:0.264583"
       x="131.86888"
       y="46.130219"
       id="text5"><tspan
         sodipodi:role="line"
         id="tspan5"
         style="stroke-width:0.264583"
         x="131.86888"
         y="46.130219">Spanish:</tspan></text>
    <text
       xml:space="preserve"
       style="font-size:3.175px;fill:#1a1a1a;stroke-width:0.264583"
       x="70.526573"
       y="55.277718"
       id="text6"><tspan
         sodipodi:role="line"
         id="tspan6"
         style="stroke-width:0.264583"
         x="70.526573"
         y="55.277718">Hello</tspan></text>
    <text
       xml:space="preserve"
       style="font-size:3.175px;fill:#1a1a1a;stroke-width:0.264583"
       x="155.56789"
       y="55.687351"
       id="text6-3"><tspan
         sodipodi:role="line"
         id="tspan6-7"
         style="stroke-width:0.264583"
         x="155.56789"
         y="55.687351">Hola</tspan></text>
    <path
       stroke="none"
       d="m 114.47517,51.642589 h 6.35 v 6.35 h -6.35 z"
       fill="none"
       id="path1-5"
       style="stroke-width:0.264583" />
    <path
       d="m 118.70851,52.436339 1.05833,1.058334 -1.05833,1.058333"
       id="path2-9"
       style="stroke-width:0.264583" />
    <path
       d="m 116.59184,53.494673 h 2.64583"
       id="path3-2"
       style="fill:none;fill-opacity:1;stroke:#000000;stroke-width:0.165;stroke-dasharray:none;stroke-opacity:1" />
    <path
       d="m 116.59184,55.082173 -1.05833,1.058333 1.05833,1.058333"
       id="path4-28"
       style="stroke-width:0.264583" />
    <path
       d="m 116.06268,56.140506 h 2.38125"
       id="path5"
       style="fill:none;fill-opacity:1;stroke:#000000;stroke-width:0.165;stroke-dasharray:none;stroke-opacity:1" />
  </g>
</svg>
